<svg xmlns="http://www.w3.org/2000/svg">
	<defs>
		<clipPath id="blue-note-thick-stripes">
			<path fill-rule="evenodd" clip-rule="evenodd" d="M630.75 10.0535L342.856 0L328.521 410.488L616.415 420.541L630.75 10.0535ZM945.852 43.4182H630.804V436.595H945.852V413.976L1122.83 417.065L1129.9 11.8157L952.574 8.7204L945.852 393.84V43.4182ZM194.44 12.2379L322.845 9.99663L329.242 376.508L200.837 378.75L195.724 85.8259L171.989 425.249L0 413.223L26.1859 38.7471L195.108 50.5593L194.44 12.2379ZM1306.97 47.8399L1129.72 54.0295L1142.75 427.24L1320 421.051L1306.97 47.8399Z"/>
			<path fill-rule="evenodd" clip-rule="evenodd" d="M630.75 10.0535L342.856 0L328.521 410.488L616.415 420.541L630.75 10.0535ZM945.852 43.4182H630.804V436.595H945.852V413.976L1122.83 417.065L1129.9 11.8157L952.574 8.7204L945.852 393.84V43.4182ZM194.44 12.2379L322.845 9.99663L329.242 376.508L200.837 378.75L195.724 85.8259L171.989 425.249L0 413.223L26.1859 38.7471L195.108 50.5593L194.44 12.2379ZM1306.97 47.8399L1129.72 54.0295L1142.75 427.24L1320 421.051L1306.97 47.8399Z"/>
		</clipPath>
	</defs>
</svg> 