<svg width="1322" height="1044" viewBox="0 0 1322 1044" fill="none" xmlns="http://www.w3.org/2000/svg" xmlns:xlink="http://www.w3.org/1999/xlink">
  <defs>
    <clipPath id="blue-note-thin-stripes">
<rect y="170" width="45" height="600" fill="#C8266A"/>
<rect x="55" y="100" width="46" height="600" fill="#C8266A"/>
<rect x="111" y="130" width="45" height="600" fill="#C8266A"/>
<rect x="166" y="80" width="46" height="600" fill="#C8266A"/>
<rect x="221" y="170" width="46" height="600" fill="#C8266A"/>
<rect x="277" y="110" width="46" height="600" fill="#C8266A"/>
<rect x="333" y="120" width="46" height="600" fill="#C8266A"/>
<rect x="388" y="90" width="46" height="600" fill="#C8266A"/>
<rect x="443" y="80" width="46" height="600" fill="#C8266A"/>
<rect x="499" y="110" width="46" height="600" fill="#C8266A"/>
<rect x="555" y="110" width="46" height="600" fill="#C8266A"/>
<rect x="610" y="30" width="46" height="600" fill="#C8266A"/>
<rect x="665" y="50" width="46" height="600" fill="#C8266A"/>
<rect x="721" y="10" width="46" height="600" fill="#C8266A"/>
<rect x="776" y="60" width="46" height="600" fill="#C8266A"/>
<rect x="832" y="50" width="46" height="600" fill="#C8266A"/>
<rect x="887" y="30" width="46" height="600" fill="#C8266A"/>
<rect x="943" y="20" width="46" height="600" fill="#C8266A"/>
<rect x="998" y="50" width="46" height="600" fill="#C8266A"/>
<rect x="1053" y="70" width="46" height="600" fill="#C8266A"/>
<rect x="1109" y="20" width="46" height="600" fill="#C8266A"/>
<rect x="1164" y="30" width="46" height="600" fill="#C8266A"/>
<rect x="1220" width="46" height="600" fill="#C8266A"/>
<rect x="1276" y="10" width="46" height="600" fill="#C8266A"/>
    </clipPath>
  </defs>

</svg>
